<svg id="Layer_1" enable-background="new 0 0 256 256" height="512" viewBox="0 0 256 256" width="512" xmlns="http://www.w3.org/2000/svg"><g><g><path d="m243.15 191.318h-230.3c-4.888 0-8.85-3.962-8.85-8.85v-141.796c0-4.888 3.962-8.85 8.85-8.85h230.3c4.888 0 8.85 3.962 8.85 8.85v141.796c0 4.888-3.962 8.85-8.85 8.85z" fill="#f4efed"/></g><g><path d="m243.15 31.822h-10c4.888 0 8.85 3.962 8.85 8.85v141.796c0 4.888-3.962 8.85-8.85 8.85h10c4.888 0 8.85-3.962 8.85-8.85v-141.796c0-4.888-3.962-8.85-8.85-8.85z" fill="#d6d1cf"/></g><g><path d="m12.85 191.318h10c-4.888 0-8.85-3.962-8.85-8.85v-141.796c0-4.888 3.962-8.85 8.85-8.85h-10c-4.888 0-8.85 3.962-8.85 8.85v141.796c0 4.888 3.962 8.85 8.85 8.85z" fill="#fff"/></g><g><path d="m218.854 158.957h-15.004c-1.104 0-2-.896-2-2v-90.774c0-1.104.896-2 2-2h15.004c1.104 0 2 .896 2 2s-.896 2-2 2h-13.004v86.774h13.004c1.104 0 2 .896 2 2s-.895 2-2 2z" fill="#690589"/></g><g><path d="m52.149 158.957h-15.003c-1.104 0-2-.896-2-2s.896-2 2-2h13.004v-86.774h-13.004c-1.104 0-2-.896-2-2s.896-2 2-2h15.004c1.104 0 2 .896 2 2v90.774c-.001 1.105-.896 2-2.001 2z" fill="#690589"/></g><g><path d="m234.105 113.57h-212.21c-1.104 0-2-.896-2-2s.896-2 2-2h212.211c1.104 0 2 .896 2 2s-.896 2-2.001 2z" fill="#690589"/></g><g><circle cx="22.032" cy="111.57" fill="#8852a8" r="8.59"/></g><g><path d="m45.837 156.896c0 4.744-3.846 8.59-8.59 8.59s-8.59-3.846-8.59-8.59 3.846-8.59 8.59-8.59c4.744.001 8.59 3.846 8.59 8.59z" fill="#8852a8"/></g><g><circle cx="37.247" cy="66.244" fill="#8852a8" r="8.59"/></g><g><circle cx="233.968" cy="111.57" fill="#8852a8" r="8.59"/></g><g><path d="m210.163 156.896c0 4.744 3.846 8.59 8.59 8.59s8.59-3.846 8.59-8.59-3.846-8.59-8.59-8.59c-4.744.001-8.59 3.846-8.59 8.59z" fill="#8852a8"/></g><g><circle cx="218.753" cy="66.244" fill="#8852a8" r="8.59"/></g><g><path d="m22.032 122.16c-5.839 0-10.59-4.75-10.59-10.59s4.751-10.59 10.59-10.59 10.59 4.75 10.59 10.59-4.751 10.59-10.59 10.59zm0-17.18c-3.634 0-6.59 2.956-6.59 6.59s2.956 6.59 6.59 6.59 6.59-2.956 6.59-6.59-2.956-6.59-6.59-6.59z" fill="#690589"/></g><g><path d="m37.247 167.486c-5.839 0-10.59-4.75-10.59-10.59s4.751-10.59 10.59-10.59 10.59 4.75 10.59 10.59-4.751 10.59-10.59 10.59zm0-17.179c-3.634 0-6.59 2.956-6.59 6.59s2.956 6.59 6.59 6.59 6.59-2.956 6.59-6.59-2.956-6.59-6.59-6.59z" fill="#690589"/></g><g><path d="m37.247 76.833c-5.839 0-10.59-4.75-10.59-10.59s4.751-10.59 10.59-10.59 10.59 4.75 10.59 10.59-4.751 10.59-10.59 10.59zm0-17.179c-3.634 0-6.59 2.956-6.59 6.59s2.956 6.59 6.59 6.59 6.59-2.956 6.59-6.59-2.956-6.59-6.59-6.59z" fill="#690589"/></g><g><path d="m233.968 122.16c-5.839 0-10.59-4.75-10.59-10.59s4.751-10.59 10.59-10.59 10.59 4.75 10.59 10.59-4.751 10.59-10.59 10.59zm0-17.18c-3.634 0-6.59 2.956-6.59 6.59s2.956 6.59 6.59 6.59 6.59-2.956 6.59-6.59-2.956-6.59-6.59-6.59z" fill="#690589"/></g><g><path d="m218.753 167.486c-5.839 0-10.59-4.75-10.59-10.59s4.751-10.59 10.59-10.59 10.59 4.75 10.59 10.59-4.751 10.59-10.59 10.59zm0-17.179c-3.634 0-6.59 2.956-6.59 6.59s2.956 6.59 6.59 6.59 6.59-2.956 6.59-6.59-2.956-6.59-6.59-6.59z" fill="#690589"/></g><g><path d="m218.753 76.833c-5.839 0-10.59-4.75-10.59-10.59s4.751-10.59 10.59-10.59 10.59 4.75 10.59 10.59-4.751 10.59-10.59 10.59zm0-17.179c-3.634 0-6.59 2.956-6.59 6.59s2.956 6.59 6.59 6.59 6.59-2.956 6.59-6.59-2.956-6.59-6.59-6.59z" fill="#690589"/></g><g><path d="m208.901 224.178h-161.802v-11.854c0-4.888 3.962-8.85 8.85-8.85h144.102c4.888 0 8.85 3.962 8.85 8.85z" fill="#526faa"/></g><g><path d="m200.051 203.474h-10c4.888 0 8.85 3.962 8.85 8.85v11.855h10v-11.855c0-4.888-3.962-8.85-8.85-8.85z" fill="#34518c"/></g><g><path d="m55.949 203.474h10c-4.888 0-8.85 3.962-8.85 8.85v11.855h-10v-11.855c0-4.888 3.962-8.85 8.85-8.85z" fill="#708dc8"/></g><g><path d="m80.503 191.318h94.993v12.156h-94.993z" fill="#34518c"/></g><g><path d="m12 69.026c-1.104 0-2-.896-2-2v-12c0-1.104.896-2 2-2s2 .896 2 2v12c0 1.104-.896 2-2 2z" fill="#690589"/></g><g><path d="m208.901 226.178h-161.802c-1.104 0-2-.896-2-2v-11.854c0-5.983 4.867-10.85 10.851-10.85h144.102c5.983 0 10.851 4.867 10.851 10.85v11.854c-.002 1.105-.897 2-2.002 2zm-159.802-4h157.803v-9.854c0-3.777-3.073-6.85-6.851-6.85h-144.102c-3.777 0-6.851 3.073-6.851 6.85v9.854z" fill="#690589"/></g><g><path d="m175.497 205.474h-94.994c-1.104 0-2-.896-2-2v-12.155c0-1.104.896-2 2-2h94.994c1.104 0 2 .896 2 2v12.155c0 1.104-.895 2-2 2zm-92.994-4h90.994v-8.155h-90.994z" fill="#690589"/></g><g><path d="m243.15 193.318h-230.3c-5.982 0-10.85-4.867-10.85-10.85v-141.796c0-5.983 4.867-10.85 10.85-10.85h230.3c5.982 0 10.85 4.867 10.85 10.85v141.796c0 5.983-4.867 10.85-10.85 10.85zm-230.3-159.496c-3.777 0-6.85 3.073-6.85 6.85v141.796c0 3.777 3.072 6.85 6.85 6.85h230.3c3.777 0 6.85-3.073 6.85-6.85v-141.796c0-3.777-3.072-6.85-6.85-6.85z" fill="#690589"/></g><g><g><path d="m195.059 122.802v-22.464h-12.431c-1.444-7.061-4.231-13.629-8.069-19.442l8.802-8.801-15.886-15.885-8.801 8.802c-5.813-3.838-12.382-6.625-19.442-8.069v-12.432h-22.464v12.431c-7.061 1.444-13.628 4.231-19.442 8.069l-8.801-8.802-15.885 15.886 8.802 8.801c-3.838 5.813-6.625 12.382-8.069 19.442h-12.432v22.464h12.431c1.444 7.061 4.231 13.629 8.069 19.442l-8.802 8.802 15.884 15.884 8.801-8.801c5.814 3.838 12.381 6.625 19.442 8.069v12.431h22.464v-12.431c7.061-1.444 13.629-4.232 19.442-8.069l8.801 8.801 15.884-15.884-8.802-8.802c3.838-5.813 6.625-12.382 8.069-19.442zm-67.059 26.62c-20.905 0-37.852-16.947-37.852-37.852s16.947-37.852 37.852-37.852c20.906 0 37.853 16.947 37.853 37.852s-16.948 37.852-37.853 37.852z" fill="#fcc24c"/></g><g><path d="m195.059 122.802v-22.464h-12.431c-1.444-7.061-4.231-13.629-8.069-19.442l8.802-8.801-15.886-15.885-8.801 8.802c-5.813-3.838-12.382-6.625-19.442-8.069v-12.432h-22.464v12.431c-7.061 1.444-13.628 4.231-19.442 8.069l-8.801-8.802-15.885 15.886 8.802 8.801c-3.838 5.813-6.625 12.382-8.069 19.442h-12.432v22.464h12.431c1.444 7.061 4.231 13.629 8.069 19.442l-8.802 8.802 15.884 15.884 8.801-8.801c5.814 3.838 12.381 6.625 19.442 8.069v12.431h22.464v-12.431c7.061-1.444 13.629-4.232 19.442-8.069l8.801 8.801 15.884-15.884-8.802-8.802c3.838-5.813 6.625-12.382 8.069-19.442zm-67.059 26.62c-20.905 0-37.852-16.947-37.852-37.852s16.947-37.852 37.852-37.852c20.906 0 37.853 16.947 37.853 37.852s-16.948 37.852-37.853 37.852z" fill="#fcc24c"/></g><g><path d="m139.231 180.629h-22.463c-1.104 0-2-.896-2-2v-10.822c-6.071-1.422-11.832-3.813-17.166-7.126l-7.664 7.664c-.781.781-2.047.781-2.828 0l-15.885-15.884c-.375-.375-.586-.884-.586-1.414s.211-1.039.586-1.414l7.664-7.664c-3.312-5.333-5.703-11.094-7.126-17.166h-10.822c-1.104 0-2-.896-2-2v-22.463c0-1.104.896-2 2-2h10.822c1.423-6.072 3.814-11.833 7.126-17.166l-7.664-7.664c-.375-.375-.586-.884-.586-1.414s.211-1.039.586-1.414l15.885-15.886c.781-.781 2.047-.781 2.828 0l7.664 7.664c5.333-3.312 11.095-5.704 17.166-7.126v-10.823c0-1.104.896-2 2-2h22.463c1.104 0 2 .896 2 2v10.823c6.071 1.422 11.833 3.814 17.166 7.126l7.664-7.664c.375-.375.884-.586 1.414-.586.53 0 1.039.211 1.414.586l15.884 15.885c.781.781.781 2.047 0 2.828l-7.664 7.664c3.312 5.333 5.704 11.094 7.126 17.166h10.823c1.104 0 2 .896 2 2v22.463c0 1.104-.896 2-2 2h-10.823c-1.422 6.072-3.813 11.833-7.126 17.166l7.664 7.664c.375.375.586.884.586 1.414s-.211 1.039-.586 1.414l-15.884 15.884c-.781.781-2.047.781-2.828 0l-7.664-7.664c-5.334 3.312-11.095 5.704-17.166 7.126v10.822c0 1.105-.895 2.001-2 2.001zm-20.462-4h18.463v-10.431c0-.95.668-1.769 1.6-1.959 6.688-1.368 12.994-3.985 18.741-7.779.792-.524 1.844-.417 2.516.255l7.388 7.387 13.056-13.056-7.388-7.387c-.672-.671-.778-1.723-.255-2.516 3.794-5.746 6.411-12.051 7.778-18.741.19-.931 1.01-1.6 1.96-1.6h10.432v-18.463h-10.432c-.95 0-1.77-.668-1.96-1.6-1.367-6.69-3.984-12.995-7.778-18.741-.523-.793-.417-1.845.255-2.516l7.388-7.387-13.056-13.056-7.388 7.387c-.671.672-1.723.78-2.516.255-5.746-3.793-12.052-6.41-18.741-7.779-.932-.19-1.6-1.009-1.6-1.959v-10.432h-18.463v10.431c0 .95-.668 1.769-1.6 1.959-6.689 1.368-12.995 3.985-18.741 7.779-.792.524-1.844.417-2.516-.255l-7.388-7.387-13.056 13.057 7.388 7.387c.672.671.778 1.723.255 2.516-3.793 5.746-6.41 12.051-7.779 18.741-.19.931-1.009 1.599-1.959 1.599h-10.432v18.463h10.431c.95 0 1.769.668 1.959 1.599 1.369 6.69 3.986 12.996 7.779 18.741.523.793.417 1.845-.255 2.516l-7.388 7.387 13.057 13.056 7.388-7.387c.672-.671 1.725-.779 2.516-.255 5.748 3.794 12.053 6.411 18.741 7.779.931.19 1.6 1.009 1.6 1.959zm9.231-25.207c-21.975 0-39.853-17.878-39.853-39.853s17.878-39.851 39.853-39.851 39.853 17.877 39.853 39.852-17.878 39.852-39.853 39.852zm0-75.704c-19.77 0-35.853 16.083-35.853 35.852s16.083 35.852 35.853 35.852 35.853-16.083 35.853-35.853-16.083-35.851-35.853-35.851z" fill="#690589"/></g><g><path d="m139.231 180.629h-22.463c-1.104 0-2-.896-2-2v-10.822c-6.071-1.422-11.832-3.813-17.166-7.126l-7.664 7.664c-.781.781-2.047.781-2.828 0l-15.885-15.884c-.375-.375-.586-.884-.586-1.414s.211-1.039.586-1.414l7.664-7.664c-3.312-5.333-5.703-11.094-7.126-17.166h-10.822c-1.104 0-2-.896-2-2v-22.463c0-1.104.896-2 2-2h10.822c1.423-6.072 3.814-11.833 7.126-17.166l-7.664-7.664c-.375-.375-.586-.884-.586-1.414s.211-1.039.586-1.414l15.885-15.886c.781-.781 2.047-.781 2.828 0l7.664 7.664c5.333-3.312 11.095-5.704 17.166-7.126v-10.823c0-1.104.896-2 2-2h22.463c1.104 0 2 .896 2 2v10.823c6.071 1.422 11.833 3.814 17.166 7.126l7.664-7.664c.375-.375.884-.586 1.414-.586.53 0 1.039.211 1.414.586l15.884 15.885c.781.781.781 2.047 0 2.828l-7.664 7.664c3.312 5.333 5.704 11.094 7.126 17.166h10.823c1.104 0 2 .896 2 2v22.463c0 1.104-.896 2-2 2h-10.823c-1.422 6.072-3.813 11.833-7.126 17.166l7.664 7.664c.375.375.586.884.586 1.414s-.211 1.039-.586 1.414l-15.884 15.884c-.781.781-2.047.781-2.828 0l-7.664-7.664c-5.334 3.312-11.095 5.704-17.166 7.126v10.822c0 1.105-.895 2.001-2 2.001zm-20.462-4h18.463v-10.431c0-.95.668-1.769 1.6-1.959 6.688-1.368 12.994-3.985 18.741-7.779.792-.524 1.844-.417 2.516.255l7.388 7.387 13.056-13.056-7.388-7.387c-.672-.671-.778-1.723-.255-2.516 3.794-5.746 6.411-12.051 7.778-18.741.19-.931 1.01-1.6 1.96-1.6h10.432v-18.463h-10.432c-.95 0-1.77-.668-1.96-1.6-1.367-6.69-3.984-12.995-7.778-18.741-.523-.793-.417-1.845.255-2.516l7.388-7.387-13.056-13.056-7.388 7.387c-.671.672-1.723.78-2.516.255-5.746-3.793-12.052-6.41-18.741-7.779-.932-.19-1.6-1.009-1.6-1.959v-10.432h-18.463v10.431c0 .95-.668 1.769-1.6 1.959-6.689 1.368-12.995 3.985-18.741 7.779-.792.524-1.844.417-2.516-.255l-7.388-7.387-13.056 13.057 7.388 7.387c.672.671.778 1.723.255 2.516-3.793 5.746-6.41 12.051-7.779 18.741-.19.931-1.009 1.599-1.959 1.599h-10.432v18.463h10.431c.95 0 1.769.668 1.959 1.599 1.369 6.69 3.986 12.996 7.779 18.741.523.793.417 1.845-.255 2.516l-7.388 7.387 13.057 13.056 7.388-7.387c.672-.671 1.725-.779 2.516-.255 5.748 3.794 12.053 6.411 18.741 7.779.931.19 1.6 1.009 1.6 1.959zm9.231-25.207c-21.975 0-39.853-17.878-39.853-39.853s17.878-39.851 39.853-39.851 39.853 17.877 39.853 39.852-17.878 39.852-39.853 39.852zm0-75.704c-19.77 0-35.853 16.083-35.853 35.852s16.083 35.852 35.853 35.852 35.853-16.083 35.853-35.853-16.083-35.851-35.853-35.851z" fill="#690589"/></g></g><g><path d="m152.927 151.57h-49.854c-2.761 0-5-2.239-5-5v-70c0-2.761 2.239-5 5-5h49.854c2.761 0 5 2.239 5 5v70c0 2.761-2.239 5-5 5z" fill="#f4efed"/></g><g><path d="m152.927 153.57h-49.854c-3.859 0-7-3.14-7-7v-70c0-3.86 3.141-7 7-7h49.854c3.859 0 7 3.14 7 7v70c0 3.86-3.141 7-7 7zm-49.854-80c-1.654 0-3 1.346-3 3v70c0 1.654 1.346 3 3 3h49.854c1.654 0 3-1.346 3-3v-70c0-1.654-1.346-3-3-3z" fill="#690589"/></g><g><path d="m147.003 87.226h-38.006c-1.104 0-2-.896-2-2s.896-2 2-2h38.006c1.104 0 2 .896 2 2s-.896 2-2 2z" fill="#690589"/></g><g><path d="m147.003 104.789h-38.006c-1.104 0-2-.896-2-2s.896-2 2-2h38.006c1.104 0 2 .896 2 2s-.896 2-2 2z" fill="#690589"/></g><g><path d="m147.003 122.352h-38.006c-1.104 0-2-.896-2-2s.896-2 2-2h38.006c1.104 0 2 .896 2 2s-.896 2-2 2z" fill="#690589"/></g><g><path d="m147.003 139.915h-38.006c-1.104 0-2-.896-2-2s.896-2 2-2h38.006c1.104 0 2 .896 2 2s-.896 2-2 2z" fill="#690589"/></g></g></svg>