<svg height="512" viewBox="0 0 64 64" width="512" xmlns="http://www.w3.org/2000/svg"><g id="coding-database-web_design-programing-server" data-name="coding-database-web design-programing-server"><path d="m59 9v34h-54v-34a4.012 4.012 0 0 1 4-4h46a4.012 4.012 0 0 1 4 4z" fill="#ffdaaa"/><path d="m25 43h34v-34a34 34 0 0 1 -34 34z" fill="#ffc477"/><rect fill="#2488ff" height="10" rx="2" width="28" x="33" y="13"/><path d="m37 16h8v4h-8z" fill="#7ed63e"/><rect fill="#006df0" height="10" rx="2" width="28" x="33" y="23"/><path d="m37 26h8v4h-8z" fill="#7ed63e"/><rect fill="#57a4ff" height="10" rx="2" width="28" x="33" y="3"/><path d="m37 6h8v4h-8z" fill="#7ed63e"/><path d="m5 43v2a4.012 4.012 0 0 0 4 4h46a4.012 4.012 0 0 0 4-4v-2z" fill="#004fac"/><path d="m26 49h12v8h-12z" fill="#808285"/><path d="m19 57a2 2 0 0 0 -2 2v2h30v-2a2 2 0 0 0 -2-2z" fill="#58595b"/><path d="m26 49h12v2h-12z" fill="#6d6e71"/><path d="m59 23h-2a2.006 2.006 0 0 1 2 2v6a2.006 2.006 0 0 1 -2 2h2a2.006 2.006 0 0 0 2-2v-6a2.006 2.006 0 0 0 -2-2z" fill="#005ece"/><path d="m59 13h-2a2.006 2.006 0 0 1 2 2v6a2.006 2.006 0 0 1 -2 2h2a2.006 2.006 0 0 0 2-2v-6a2.006 2.006 0 0 0 -2-2z" fill="#006df0"/><path d="m59 3h-2a2.006 2.006 0 0 1 2 2v6a2.006 2.006 0 0 1 -2 2h2a2.006 2.006 0 0 0 2-2v-6a2.006 2.006 0 0 0 -2-2z" fill="#2488ff"/><g fill="#231f20"><path d="m21.168 14.555a1 1 0 0 0 1.387.277l3-2a1 1 0 0 0 0-1.664l-3-2a1 1 0 0 0 -1.11 1.664l1.755 1.168-1.752 1.168a1 1 0 0 0 -.28 1.387z"/><path d="m14.5 15.868a.988.988 0 0 0 .5.132 1 1 0 0 0 .869-.5l4-7a1 1 0 1 0 -1.737-1l-4 7a1 1 0 0 0 .368 1.368z"/><path d="m9 20h2a1 1 0 0 0 0-2h-2a1 1 0 0 0 0 2z"/><path d="m9 24h14a1 1 0 0 0 0-2h-14a1 1 0 0 0 0 2z"/><path d="m15 20h14a1 1 0 0 0 0-2h-14a1 1 0 0 0 0 2z"/><path d="m9 32h8a1 1 0 0 0 0-2h-8a1 1 0 0 0 0 2z"/><path d="m23 32a1 1 0 0 0 0-2h-2a1 1 0 0 0 0 2z"/><path d="m9 28h2a1 1 0 0 0 0-2h-2a1 1 0 0 0 0 2z"/><path d="m29 26h-14a1 1 0 0 0 0 2h14a1 1 0 0 0 0-2z"/><path d="m9 40h14a1 1 0 0 0 0-2h-14a1 1 0 0 0 0 2z"/><path d="m29 38h-2a1 1 0 0 0 0 2h2a1 1 0 0 0 0-2z"/><path d="m9 36h2a1 1 0 0 0 0-2h-2a1 1 0 0 0 0 2z"/><path d="m29 34h-14a1 1 0 0 0 0 2h14a1 1 0 0 0 0-2z"/><path d="m33 45h-2a1 1 0 0 0 0 2h2a1 1 0 0 0 0-2z"/><path d="m37 21h8a1 1 0 0 0 1-1v-4a1 1 0 0 0 -1-1h-8a1 1 0 0 0 -1 1v4a1 1 0 0 0 1 1zm1-4h6v2h-6z"/><path d="m53 20a1 1 0 0 0 1-1v-2a1 1 0 0 0 -2 0v2a1 1 0 0 0 1 1z"/><path d="m49 20a1 1 0 0 0 1-1v-2a1 1 0 0 0 -2 0v2a1 1 0 0 0 1 1z"/><path d="m57 20a1 1 0 0 0 1-1v-2a1 1 0 0 0 -2 0v2a1 1 0 0 0 1 1z"/><path d="m45 25h-8a1 1 0 0 0 -1 1v4a1 1 0 0 0 1 1h8a1 1 0 0 0 1-1v-4a1 1 0 0 0 -1-1zm-1 4h-6v-2h6z"/><path d="m53 26a1 1 0 0 0 -1 1v2a1 1 0 0 0 2 0v-2a1 1 0 0 0 -1-1z"/><path d="m49 26a1 1 0 0 0 -1 1v2a1 1 0 0 0 2 0v-2a1 1 0 0 0 -1-1z"/><path d="m57 26a1 1 0 0 0 -1 1v2a1 1 0 0 0 2 0v-2a1 1 0 0 0 -1-1z"/><path d="m37 11h8a1 1 0 0 0 1-1v-4a1 1 0 0 0 -1-1h-8a1 1 0 0 0 -1 1v4a1 1 0 0 0 1 1zm1-4h6v2h-6z"/><path d="m53 10a1 1 0 0 0 1-1v-2a1 1 0 0 0 -2 0v2a1 1 0 0 0 1 1z"/><path d="m49 10a1 1 0 0 0 1-1v-2a1 1 0 0 0 -2 0v2a1 1 0 0 0 1 1z"/><path d="m57 10a1 1 0 0 0 1-1v-2a1 1 0 0 0 -2 0v2a1 1 0 0 0 1 1z"/><path d="m62 5a3.009 3.009 0 0 0 -3-3h-24a3.01 3.01 0 0 0 -2.82 2h-23.18a5 5 0 0 0 -5 5v36a5 5 0 0 0 5 5h16v6h-6a3.009 3.009 0 0 0 -3 3v2a1 1 0 0 0 1 1h30a1 1 0 0 0 1-1v-2a3.009 3.009 0 0 0 -3-3h-6v-6h16a5 5 0 0 0 5-5v-11.18a3.01 3.01 0 0 0 2-2.82v-6a2.974 2.974 0 0 0 -.78-2 2.974 2.974 0 0 0 .78-2v-6a2.974 2.974 0 0 0 -.78-2 2.974 2.974 0 0 0 .78-2zm-17 53a1 1 0 0 1 1 1v1h-28v-1a1 1 0 0 1 1-1zm-18-2v-6h10v6zm31-11a3.009 3.009 0 0 1 -3 3h-46a3.009 3.009 0 0 1 -3-3v-1h52zm0-3h-52v-33a3.009 3.009 0 0 1 3-3h23v5a2.974 2.974 0 0 0 .78 2 2.974 2.974 0 0 0 -.78 2v6a2.974 2.974 0 0 0 .78 2 2.974 2.974 0 0 0 -.78 2v6a3.009 3.009 0 0 0 3 3h23zm2-11a1 1 0 0 1 -1 1h-24a1 1 0 0 1 -1-1v-6a1 1 0 0 1 1-1h24a1 1 0 0 1 1 1zm0-10a1 1 0 0 1 -1 1h-24a1 1 0 0 1 -1-1v-6a1 1 0 0 1 1-1h24a1 1 0 0 1 1 1zm0-10a1 1 0 0 1 -1 1h-24a1 1 0 0 1 -1-1v-6a1 1 0 0 1 1-1h24a1 1 0 0 1 1 1z"/><path d="m8.445 12.832 3 2a1 1 0 1 0 1.11-1.664l-1.755-1.168 1.752-1.168a1 1 0 0 0 -1.11-1.664l-3 2a1 1 0 0 0 0 1.664z"/></g></g></svg>