<svg height="512" viewBox="0 0 56 60" width="512" xmlns="http://www.w3.org/2000/svg"><g id="Page-1" fill="none" fill-rule="evenodd"><g id="009---Drone-Survyeing" fill-rule="nonzero" transform="translate(0 -1)"><path id="Shape" d="m17.69 28.32-6.69 8.7v9.98c0 1.6568542-1.34314575 3-3 3s-3-1.3431458-3-3v-9.98c.00240855-1.3227019.43793885-2.6082187 1.24-3.66l5.62-7.3 4.14-.06z" fill="#7f8c8d"/><path id="Shape" d="m51 37.02v9.98c-.0000001 1.6568542-1.3431458 2.9999999-3 2.9999999s-2.9999999-1.3431457-3-2.9999999v-9.98l-6.69-8.7 1.69-2.32 4.14.06 5.62 7.3c.8020612 1.0517813 1.2375914 2.3372981 1.24 3.66z" fill="#7f8c8d"/><path id="Shape" d="m21 39v4h-4c-.5522847 0-1-.4477153-1-1v-2c0-.5522847.4477153-1 1-1z" fill="#464f5d"/><path id="Shape" d="m40 40v2c0 .5522847-.4477153 1-1 1h-4v-4h4c.5522847 0 1 .4477153 1 1z" fill="#464f5d"/><path id="Rectangle-path" d="m24 28h8v9h-8z" fill="#464f5d"/><path id="Shape" d="m45.47 12h-.47v-4c0-.55228475-.4477153-1-1-1h-4c-.5522847 0-1 .44771525-1 1v4h-22v-4c0-.55228475-.4477153-1-1-1h-4c-.5522847 0-1 .44771525-1 1v4h-.47c-1.73259615-.0023929-3.39491789.6848188-4.62004954 1.9099505-1.22513165 1.2251316-1.91234337 2.8874534-1.90995046 4.6200495 0 .16.01.32.02.47.1777597 2.5160568 1.78975213 4.7043171 4.14 5.62l3.7 1.44 5.83 2.26 3.96 1.54c.2325526.0915098.4800926.1389832.73.14h11.24c.2499074-.0010168.4974474-.0484902.73-.14l3.96-1.54 5.83-2.26 3.7-1.44c2.3505579-.9152782 3.9627187-3.1037671 4.14-5.62.01-.15.02-.31.02-.47.0013279-1.7322704-.6862258-3.3939731-1.9111263-4.6188737-1.2249006-1.2249005-2.8866033-1.9124542-4.6188737-1.9111263z" fill="#f0c419"/><path id="Shape" d="m14 8c-.5522847 0-1-.44771525-1-1v-5c0-.55228475.4477153-1 1-1s1 .44771525 1 1v5c0 .55228475-.4477153 1-1 1z" fill="#95a5a5"/><path id="Shape" d="m42 8c-.5522847 0-1-.44771525-1-1v-5c0-.55228475.4477153-1 1-1s1 .44771525 1 1v5c0 .55228475-.4477153 1-1 1z" fill="#95a5a5"/><path id="Shape" d="m1 60 17-11h20l17 11z" fill="#fb7b76"/><path id="Shape" d="m52 18.53c0 .16-.01.32-.02.47h-15.98c0-1.6568542-1.3431458-3-3-3h-10c-1.6568542 0-3 1.3431458-3 3h-15.98c-.01-.15-.02-.31-.02-.47-.00239291-1.7325961.68481881-3.3949179 1.90995046-4.6200495 1.22513165-1.2251317 2.88745339-1.9123434 4.62004954-1.9099505h34.94c1.7322704-.0013279 3.3939731.6862258 4.6188737 1.9111263 1.2249005 1.2249006 1.9124542 2.8866033 1.9111263 4.6188737z" fill="#f3d55b"/><rect id="Rectangle-path" fill="#7f8c8d" height="12" rx="2" width="16" x="20" y="35"/><circle id="Oval" cx="28" cy="41" fill="#35495e" r="5"/><path id="Shape" d="m17 8v4h-6v-4c0-.55228475.4477153-1 1-1h4c.5522847 0 1 .44771525 1 1z" fill="#464f5d"/><path id="Shape" d="m14 5c-.0549795.00035248-.1098757-.00433378-.164-.014l-12-2c-.36115294-.0489371-.6670837-.29047993-.79847631-.63042445-.1313926-.33994451-.06743793-.72445247.16692107-1.00356203s.60200606-.40861714.95955524-.33801352l11.836 1.972 11.836-1.972c.3575492-.07060362.7251962.05890396.9595552.33801352s.2983137.66361752.1669211 1.00356203c-.1313926.33994452-.4373234.58148735-.7984763.63042445l-12 2c-.0541243.00966622-.1090205.01435248-.164.014z" fill="#464f5d"/><path id="Shape" d="m45 8v4h-6v-4c0-.55228475.4477153-1 1-1h4c.5522847 0 1 .44771525 1 1z" fill="#464f5d"/><path id="Shape" d="m42 5c-.0549795.00035248-.1098757-.00433378-.164-.014l-12-2c-.3611529-.0489371-.6670837-.29047993-.7984763-.63042445-.1313926-.33994451-.0674379-.72445247.1669211-1.00356203s.602006-.40861714.9595552-.33801352l11.836 1.972 11.836-1.972c.3575492-.07060362.7251962.05890396.9595552.33801352s.2983137.66361752.1669211 1.00356203c-.1313926.33994452-.4373234.58148735-.7984763.63042445l-12 2c-.0541243.00966622-.1090205.01435248-.164.014z" fill="#464f5d"/><g fill="#e64c3c"><path id="Shape" d="m1 61c-.44298257-.0000582-.83313545-.291551-.95879286-.7163378-.12565742-.4247867.04313047-.8816215.41479286-1.1226622l11-7.12c.2997994-.2093044.6899293-.2383016 1.0173774-.0756186s.5400038.491107.5543008.8564611c.014297.365354-.1719442.7093837-.4856782.8971575l-11 7.12c-.16117447.1052135-.34952384.1611623-.542.161z"/><path id="Shape" d="m16.451 51c-.4434241.0001835-.8340143-.2916673-.9595215-.7169589-.1255073-.4252915.0440452-.8824453.4165215-1.1230411l1.55-1c.3001877-.2045957.6877199-.2303019 1.0123016-.0671491.3245816.1631528.5351527.489499.5500482.8524732.0148955.3629741-.1682278.7054765-.4783498.8946759l-1.55 1c-.1610958.1044639-.3489986.1600359-.541.16z"/><path id="Shape" d="m55 61c-.1924594.0000467-.3807765-.0558925-.542-.161l-3.09-2c-.313734-.1877738-.4999752-.5318035-.4856782-.8971575.014297-.3653541.2268527-.6937781.5543008-.8564611s.717578-.1336858 1.0173774.0756186l3.09 2c.3716624.2410407.5404503.6978755.4147929 1.1226622-.1256575.4247868-.5158103.7162796-.9587929.7163378z"/><path id="Shape" d="m47.269 56c-.1924762.0001623-.3808255-.0557865-.542-.161l-9.27-6c-.313734-.1877738-.4999752-.5318035-.4856782-.8971575.014297-.3653541.2268527-.6937781.5543008-.8564611s.717578-.1336858 1.0173774.0756186l9.27 6c.3716624.2410407.5404503.6978755.4147929 1.1226622-.1256575.4247868-.5158103.7162796-.9587929.7163378z"/><path id="Shape" d="m28 61c-.5522847 0-1-.4477153-1-1v-9c0-.5522847.4477153-1 1-1s1 .4477153 1 1v9c0 .5522847-.4477153 1-1 1z"/></g><path id="Shape" d="m36 19c0 1.6568542-1.3431458 3-3 3h-10c-1.6568542 0-3-1.3431458-3-3s1.3431458-3 3-3h10c1.6568542 0 3 1.3431458 3 3z" fill="#b19046"/><circle id="Oval" cx="28" cy="41" fill="#3b97d3" r="2"/></g></g></svg>