<svg id="Layer_1" enable-background="new 0 0 510.001 510.001" height="512" viewBox="0 0 510.001 510.001" width="512" xmlns="http://www.w3.org/2000/svg"><g><g fill="#b0d3e7"><path d="m224.938 142.501-14.938-4.369v-56.917l-30-30v-51.214h30v38.787l30 30v66.612z"/><path d="m168.083 156.835-18.083-4.521v-41.099l-30-30v-81.214h30v68.787l30 30v44.92z"/><path d="m79.667 198.751-19.667 1.234v-43.77l-30-30v-38.788l15-12.426 15 12.428v26.359l30 30v36.119z"/></g><path d="m270 68.788v66.613l16.167 6.393 13.833-3.662c0-10.92 0-42.925 0-56.917 10.499-10.499 19.501-19.501 30-30 0-16.3 0-34.914 0-51.213-10.492 0-19.508 0-30 0v38.787c-10.499 10.498-19.501 19.501-30 29.999z" fill="#93bdcf"/><path d="m45 90.001c-24.812 0-45-20.187-45-45s20.188-45 45-45c24.813 0 45 20.187 45 45s-20.187 45-45 45z" fill="#fbc000"/><path d="m330 98.788v44.92l13.25 14.126 16.75-5.521c0-14.63 0-26.365 0-41.099 10.499-10.499 19.501-19.501 30-30 0-9.822 0-71.326 0-81.213-10.492 0-19.508 0-30 0v68.787c-10.499 10.499-19.501 19.502-30 30z" fill="#93bdcf"/><path d="m450 113.788c-10.499 10.499-19.501 19.502-30 30v36.119l15 30.095 15-10.017c0-9.614 0-33.741 0-43.77 10.499-10.499 19.501-19.501 30-30 0-13.961 0-24.804 0-38.784l-15-12.43-15 12.428z" fill="#93bdcf"/><path d="m433.195 76.806c17.59 17.59 46.009 17.601 63.609 0 17.59-17.59 17.602-46.009 0-63.609-17.59-17.59-46.009-17.601-63.609 0-17.59 17.59-17.601 46.009 0 63.609z" fill="#ff9201"/><path d="m285.417 363.668-15.417 10.936v66.61l30 30v38.787h30c0-16.3 0-34.913 0-51.213-10.499-10.499-19.501-19.501-30-30 0-9.299 0-43.476 0-56.918z" fill="#93bdcf"/><path d="m343.375 350.376-13.375 15.918v44.92l30 30v68.787h30c0-9.853 0-71.325 0-81.213-10.499-10.499-19.501-19.501-30-30 0-14.733 0-26.469 0-41.1z" fill="#93bdcf"/><path d="m430 311.668-10 18.429v36.117l30 30v26.358l15 6.804 15-6.804c0-13.979 0-24.829 0-38.784-10.499-10.499-19.501-19.501-30-30 0-10.03 0-34.145 0-43.771z" fill="#93bdcf"/><path d="m210 510.001h-30v-51.212l30-30v-56.918l14.812-9.245 15.188 11.978v66.61l-30 30z" fill="#b0d3e7"/><path d="m433.195 433.196c-8.148 8.149-13.195 19.399-13.195 31.805 0 24.813 20.185 45 45 45 24.814 0 45-20.186 45-45 0-12.407-5.047-23.657-13.195-31.805-17.59-17.589-46.009-17.6-63.61 0z" fill="#ff9201"/><path d="m150 510.001h-30v-81.212l30-30v-41.1l15.188-3.813 14.812 12.418v44.92l-30 30z" fill="#b0d3e7"/><path d="m45 435.001-15-12.426v-38.786l30-30v-43.771l19.244-.259 10.756 20.338v36.117l-30 30v26.361z" fill="#b0d3e7"/><path d="m45 510.001c-24.812 0-45-20.186-45-45 0-24.813 20.188-45 45-45 24.813 0 45 20.187 45 45 0 24.814-20.187 45-45 45z" fill="#fbc000"/><path d="m25.19 230.253c-8.655 8.656-16.093 16.093-24.749 24.749 8.656 8.656 16.093 16.093 24.748 24.749h.001c61.382 61.382 142.996 95.19 229.81 95.19l10-119.939-10-119.939c-86.808-.001-168.424 33.804-229.81 95.19z" fill="#fef2f3"/><path d="m509.56 255.001c-8.656-8.655-16.094-16.093-24.75-24.749-61.382-61.382-142.996-95.191-229.81-95.191v239.879c43.405 0 85.512-8.452 124.44-24.576 72.256-29.929 110.01-76.427 117.745-82.989z" fill="#e3e3ec"/><path d="m135 255.001c0 66.166 53.83 120 120 120l10-120-10-120c-66.167 0-120 53.83-120 120z" fill="#55696e"/><path d="m339.814 170.188c-21.729-21.729-51.729-35.187-84.814-35.187v240c33.084 0 63.084-13.458 84.814-35.187 46.906-46.906 46.935-122.69 0-169.626z" fill="#3f4a4a"/><path d="m195 255.001c0 33.083 26.915 60 60 60l10-60-10-60c-33.083 0-60 26.915-60 60z" fill="#2becfd"/><path d="m315 255.001c0-33.083-26.915-60-60-60v120c33.083 0 60-26.915 60-60z" fill="#2bd1fd"/><path d="m225 255.001c0 16.541 13.457 30 30 30l10-30-10-30c-16.541 0-30 13.458-30 30z" fill="#2bd1fd"/><path d="m276.203 233.798c-5.432-5.433-12.932-8.797-21.203-8.797v60c8.272 0 15.772-3.364 21.203-8.797 11.727-11.726 11.735-30.672 0-42.406z" fill="#2bb9fd"/></g></svg>