<svg id="Capa_1" enable-background="new 0 0 512 512" height="512" viewBox="0 0 512 512" width="512" xmlns="http://www.w3.org/2000/svg"><g><path d="m447.992 208c0 106.04-85.96 192-192 192s-192-85.96-192-192 85.96-193 192-193 192 86.96 192 193z" fill="#f9f9f9"/><path d="m447.992 208c0 106.04-85.96 192-192 192v-385c106.04 0 192 86.96 192 193z" fill="#e2dff4"/><path d="m255.992 0c-114.056 0-209.574 93.936-206.93 213.46 0 .06.01.11.01.17 1.57 58.668 27.905 111.645 68.24 148.05 49.62 44.807 91.125 92.234 126.28 143.76 5.945 8.736 18.853 8.739 24.8 0 35.143-51.509 76.644-98.939 126.28-143.76 40.286-36.36 66.668-89.302 68.24-148.05 0-.06.01-.11.01-.17 2.645-119.597-92.941-213.46-206.93-213.46zm176.94 212.67c0 .05-.01.1-.01.15-2.575 94.837-80.407 172.18-176.93 172.18-96.676 0-174.358-77.466-176.93-172.18 0-.05-.01-.1-.01-.15-2.579-99.818 77.369-182.67 176.94-182.67 99.434 0 179.522 82.709 176.94 182.67z" fill="#ff405c"/><path d="m462.992 208c0 60.011-25.992 115.477-68.32 153.68-49.62 44.807-91.125 92.234-126.28 143.76-2.79 4.1-7.44 6.56-12.4 6.56v-127c98.367 0 177-80.189 177-177 0-98.15-79.4-178-177-178v-30c114.14 0 207 93.31 207 208z" fill="#b10042"/><path d="m199.992 167c-8.284 0-15-6.716-15-15v-56c0-8.284 6.716-15 15-15s15 6.716 15 15v56c0 8.284-6.716 15-15 15z" fill="#b10042"/><path d="m255.992 96-103 103v113c0 8.28 6.72 15 15 15h41s15-7 47-7 47 7 47 7h41c8.28 0 15-6.72 15-15v-113z" fill="#ffdd54"/><path d="m358.992 199v113c0 8.28-6.72 15-15 15h-41s-15-7-47-7v-224z" fill="#ffb454"/><path d="m287.992 233h-64c-8.28 0-15 6.72-15 15v79h94v-79c0-8.28-6.72-15-15-15z" fill="#0a789b"/><path d="m302.992 248v79h-47v-94h32c8.28 0 15 6.72 15 15z" fill="#08475e"/><path d="m386.602 226.61c-2.93 2.93-6.77 4.39-10.61 4.39s-7.68-1.46-10.61-4.39l-109.39-109.4-109.39 109.4c-5.86 5.85-15.36 5.85-21.22 0-5.85-5.86-5.85-15.36 0-21.22l120-120c2.93-2.93 6.77-4.39 10.61-4.39s7.68 1.46 10.61 4.39l120 120c5.85 5.86 5.85 15.36 0 21.22z" fill="#ff405c"/><path d="m386.602 226.61c-2.93 2.93-6.77 4.39-10.61 4.39s-7.68-1.46-10.61-4.39l-109.39-109.4v-36.21c3.84 0 7.68 1.46 10.61 4.39l120 120c5.85 5.86 5.85 15.36 0 21.22z" fill="#b10042"/><path d="m286.992 192c0 8.28-6.72 15-15 15h-32c-8.28 0-15-6.72-15-15s6.72-15 15-15h32c8.28 0 15 6.72 15 15z" fill="#bcfbff"/><path d="m271.992 207h-16v-30h16c8.28 0 15 6.72 15 15s-6.72 15-15 15z" fill="#acceff"/></g></svg>