<svg id="Capa_1" enable-background="new 0 0 512 512" height="512" viewBox="0 0 512 512" width="512" xmlns="http://www.w3.org/2000/svg"><g><path d="m444.685 502h-377.37c-16.742 0-30.315-13.573-30.315-30.315v-431.37c0-16.742 13.573-30.315 30.315-30.315h377.369c16.743 0 30.316 13.573 30.316 30.315v431.369c0 16.743-13.573 30.316-30.315 30.316z" fill="#6ae6a3"/><path d="m247.353 351.295h153.411v40h-153.411z" fill="#ff7d99" transform="matrix(0 1 -1 0 695.353 47.236)"/><path d="m327.353 351.295h153.411v40h-153.411z" fill="#66e1f8" transform="matrix(0 1 -1 0 775.353 -32.764)"/><g><path d="m131.044 93.102h138.806v138.806h-138.806z" fill="#ff7d99"/><path d="m179.447 141.505h42v42h-42z" fill="#fff"/></g><g><path d="m444.685 0h-143.685c-5.522 0-10 4.477-10 10s4.478 10 10 10h143.685c11.202 0 20.315 9.113 20.315 20.315v431.369c0 11.202-9.113 20.315-20.315 20.315h-377.37c-11.202.001-20.315-9.112-20.315-20.314v-431.37c0-11.202 9.113-20.315 20.315-20.315h143.685c5.522 0 10-4.477 10-10s-4.478-10-10-10h-143.685c-22.229 0-40.315 18.085-40.315 40.315v431.369c0 22.231 18.086 40.316 40.315 40.316h377.369c22.23 0 40.316-18.085 40.316-40.315v-431.37c0-22.23-18.086-40.315-40.315-40.315z"/><path d="m210.447 83.102v-33.102c0-5.523-4.478-10-10-10s-10 4.477-10 10v33.102h-29.574v-14.789c0-5.523-4.478-10-10-10s-10 4.477-10 10v14.789h-9.829c-5.522 0-10 4.477-10 10v9.83h-14.789c-5.522 0-10 4.477-10 10s4.478 10 10 10h14.789v29.574h-33.103c-5.522 0-10 4.477-10 10s4.478 10 10 10h33.103v29.574h-14.789c-5.522 0-10 4.477-10 10s4.478 10 10 10h14.789v9.829c0 5.523 4.478 10 10 10h9.829v14.789c0 5.523 4.478 10 10 10s10-4.477 10-10v-14.789h29.574v33.102c0 5.523 4.478 10 10 10s10-4.477 10-10v-33.102h29.573v14.789c0 5.523 4.478 10 10 10s10-4.477 10-10v-14.789h9.829c5.522 0 10-4.477 10-10v-9.829h14.789c5.522 0 10-4.477 10-10s-4.478-10-10-10h-14.788v-29.574h33.103c5.522 0 10-4.477 10-10s-4.478-10-10-10h-33.103v-29.574h14.789c5.522 0 10-4.477 10-10s-4.478-10-10-10h-14.789v-9.83c0-5.523-4.478-10-10-10h-9.829v-14.789c0-5.523-4.478-10-10-10s-10 4.477-10 10v14.789zm-69.403 138.806v-118.806h118.806v118.806z"/><path d="m221.447 131.505h-42c-5.522 0-10 4.477-10 10v42c0 5.523 4.478 10 10 10h42c5.522 0 10-4.477 10-10v-42c0-5.523-4.477-10-10-10zm-10 42h-22v-22h22z"/><path d="m87.941 458h153.411c5.522 0 10-4.477 10-10s-4.478-10-10-10h-153.411c-5.522 0-10 4.477-10 10s4.478 10 10 10z"/><path d="m87.941 370h68.438c5.522 0 10-4.477 10-10s-4.478-10-10-10h-68.438c-5.522 0-10 4.477-10 10s4.478 10 10 10z"/><path d="m241.353 350h-17.025c-5.522 0-10 4.477-10 10s4.478 10 10 10h17.025c5.522 0 10-4.477 10-10s-4.478-10-10-10z"/><path d="m87.941 414h22.405c5.522 0 10-4.477 10-10s-4.478-10-10-10h-22.405c-5.522 0-10 4.477-10 10s4.478 10 10 10z"/><path d="m241.353 394h-75.196c-5.522 0-10 4.477-10 10s4.478 10 10 10h75.196c5.522 0 10-4.477 10-10s-4.478-10-10-10z"/><path d="m362.947 126.235h61.111c5.522 0 10-4.477 10-10s-4.478-10-10-10h-61.111c-5.522 0-10 4.477-10 10s4.478 10 10 10z"/><path d="m362.947 78.313h61.111c5.522 0 10-4.477 10-10s-4.478-10-10-10h-61.111c-5.522 0-10 4.477-10 10s4.478 10 10 10z"/><path d="m362.947 222.079h61.111c5.522 0 10-4.477 10-10s-4.478-10-10-10h-61.111c-5.522 0-10 4.477-10 10s4.478 10 10 10z"/><path d="m362.947 174.157h61.111c5.522 0 10-4.477 10-10s-4.478-10-10-10h-61.111c-5.522 0-10 4.477-10 10s4.478 10 10 10z"/><path d="m344.059 284.589h-40c-5.522 0-10 4.477-10 10v153.411c0 5.523 4.478 10 10 10h40c5.522 0 10-4.477 10-10v-153.411c0-5.523-4.478-10-10-10zm-10 153.411h-20v-133.411h20z"/><path d="m424.059 284.589h-40c-5.522 0-10 4.477-10 10v153.411c0 5.523 4.478 10 10 10h40c5.522 0 10-4.477 10-10v-153.411c0-5.523-4.478-10-10-10zm-10 153.411h-20v-133.411h20z"/><circle cx="256" cy="10.002" r="10"/></g></g></svg>